<?xml version="1.0" encoding="UTF-8" standalone="no"?>
<svg
   xmlns:dc="http://purl.org/dc/elements/1.1/"
   xmlns:cc="http://creativecommons.org/ns#"
   xmlns:rdf="http://www.w3.org/1999/02/22-rdf-syntax-ns#"
   xmlns:svg="http://www.w3.org/2000/svg"
   xmlns="http://www.w3.org/2000/svg"
   xmlns:sodipodi="http://sodipodi.sourceforge.net/DTD/sodipodi-0.dtd"
   xmlns:inkscape="http://www.inkscape.org/namespaces/inkscape"
   height="100%"
   style="fill-rule:evenodd;clip-rule:evenodd;stroke-linejoin:round;stroke-miterlimit:2;"
   version="1.1"
   viewBox="0 0 512 512"
   width="100%"
   xml:space="preserve"
   id="svg66"
   sodipodi:docname="spottube.svg"
   inkscape:version="1.0.2 (e86c8708, 2021-01-15)"><metadata
     id="metadata72"><rdf:RDF><cc:Work
         rdf:about=""><dc:format>image/svg+xml</dc:format><dc:type
           rdf:resource="http://purl.org/dc/dcmitype/StillImage" /><dc:title></dc:title></cc:Work></rdf:RDF></metadata><defs
     id="defs70" /><sodipodi:namedview
     pagecolor="#ffffff"
     bordercolor="#666666"
     borderopacity="1"
     objecttolerance="10"
     gridtolerance="10"
     guidetolerance="10"
     inkscape:pageopacity="0"
     inkscape:pageshadow="2"
     inkscape:window-width="1440"
     inkscape:window-height="762"
     id="namedview68"
     showgrid="false"
     inkscape:zoom="1.0820312"
     inkscape:cx="188.0722"
     inkscape:cy="195.9278"
     inkscape:window-x="0"
     inkscape:window-y="25"
     inkscape:window-maximized="1"
     inkscape:current-layer="svg66" /><g
     id="g64"
     style="fill:#10bc4c;fill-opacity:1"><path
       d="M501.299,132.766c-5.888,-22.03 -23.234,-39.377 -45.264,-45.264c-39.932,-10.701 -200.037,-10.701 -200.037,-10.701c0,0 -160.105,0 -200.038,10.701c-22.025,5.887 -39.376,23.234 -45.264,45.264c-10.696,39.928 -10.696,123.236 -10.696,123.236c0,0 0,83.308 10.696,123.232c5.888,22.03 23.239,39.381 45.264,45.268c39.933,10.697 200.038,10.697 200.038,10.697c0,0 160.105,0 200.037,-10.697c22.03,-5.887 39.376,-23.238 45.264,-45.268c10.701,-39.924 10.701,-123.232 10.701,-123.232c0,0 0,-83.308 -10.701,-123.236Z"
       style="fill:#10bc4c;fill-rule:nonzero;fill-opacity:1"
       id="path60" /><path
       d="M204.796,332.803l133.018,-76.801l-133.018,-76.801l0,153.602Z"
       style="fill:#10bc4c;fill-rule:nonzero;fill-opacity:1"
       id="path62" /></g><path
     id="path1578"
     style="fill:#000000;fill-opacity:1;stroke-width:0.752937"
     d="m 223.6393,137.5253 c -4.6799,-0.0546 -9.2832,-0.0546 -13.53501,0.008 -5.6691,0.0827 -10.71529,0.27264 -14.50697,0.58508 -21.61417,1.78009 -40.18618,5.14551 -57.96752,10.50165 -11.69586,3.52306 -13.93638,4.63361 -17.25986,8.56869 -7.72209,9.14303 -7.7192,22.33245 0.006,31.06801 5.86673,6.63401 11.31679,7.61343 21.56426,3.86591 20.89323,-7.64074 48.22329,-11.63132 79.60421,-11.61995 53.87246,0.0189 100.75901,12.28432 138.33846,36.18555 5.7953,3.68591 11.7618,7.00712 13.25734,7.38377 7.7808,1.95951 17.49432,-3.11721 20.17572,-10.55353 1.76312,-4.88944 1.77605,-13.16187 0.0309,-17.98168 -2.04054,-5.63319 -4.52766,-8.60008 -11.02361,-13.1604 -31.44349,-22.07351 -73.56205,-36.95343 -121.6892,-42.99181 -8.20309,-1.02918 -22.95519,-1.69457 -36.99489,-1.85888 z m -2.26388,82.36915 c -18.69924,-0.0667 -40.03927,1.92217 -55.57083,5.42113 -8.13836,1.83345 -27.41908,7.83898 -29.64179,9.23526 -8.75957,5.50267 -9.97629,23.16674 -2.05863,29.89789 5.45707,4.63926 8.31833,4.7758 19.73504,0.96275 61.36648,-20.49558 135.60204,-9.23357 188.71138,28.63145 5.87162,4.18625 6.28942,4.3496 10.35351,4.05851 3.35597,-0.24041 4.832,-0.814 7.11764,-2.78466 6.72895,-5.8017 8.87546,-14.02698 5.80763,-22.24753 -1.53933,-4.12474 -2.25631,-4.97423 -7.39536,-8.77606 -32.33346,-23.92003 -74.91442,-39.45977 -119.55122,-43.62855 -5.33259,-0.49801 -11.27429,-0.74801 -17.50737,-0.77019 z m -10.8425,79.41415 c -4.7753,0.0834 -9.09544,0.2806 -12.45439,0.59247 -19.03004,1.76607 -48.88032,7.66813 -54.70752,10.82011 -3.32351,1.79771 -6.84549,6.55103 -7.47988,10.09432 -1.46507,8.18301 4.5155,17.50771 11.22888,17.50771 1.20264,0 6.51244,-1.10172 11.79634,-2.44396 23.26862,-5.9109 39.13824,-7.91864 62.29003,-7.89476 23.84214,0.0265 40.12175,2.53429 58.80062,9.07228 13.39002,4.68681 30.7306,13.62633 40.35149,20.79598 2.18545,1.62863 4.86303,3.52824 5.94647,4.22138 6.0545,3.87342 14.01894,-0.96536 15.93172,-9.67957 1.65595,-7.54428 -0.54654,-12.03167 -8.86236,-18.04835 -23.68832,-17.13903 -51.16273,-28.31699 -81.57834,-33.19356 -8.5525,-1.37119 -26.93716,-2.09427 -41.26306,-1.84405 z" /></svg>
